<svg width="64" height="64" viewBox="0 0 64 64" fill="none" xmlns="http://www.w3.org/2000/svg">
<path d="M25.3333 44L44 32L25.3333 20V44ZM32 58.6667C28.3111 58.6667 24.8444 57.9667 21.6 56.5667C18.3556 55.1667 15.5333 53.2667 13.1333 50.8667C10.7333 48.4667 8.83333 45.6445 7.43333 42.4C6.03333 39.1556 5.33333 35.6889 5.33333 32C5.33333 28.3111 6.03333 24.8445 7.43333 21.6C8.83333 18.3556 10.7333 15.5333 13.1333 13.1333C15.5333 10.7333 18.3556 8.83334 21.6 7.43334C24.8444 6.03334 28.3111 5.33334 32 5.33334C35.6889 5.33334 39.1556 6.03334 42.4 7.43334C45.6444 8.83334 48.4667 10.7333 50.8667 13.1333C53.2667 15.5333 55.1667 18.3556 56.5667 21.6C57.9667 24.8445 58.6667 28.3111 58.6667 32C58.6667 35.6889 57.9667 39.1556 56.5667 42.4C55.1667 45.6445 53.2667 48.4667 50.8667 50.8667C48.4667 53.2667 45.6444 55.1667 42.4 56.5667C39.1556 57.9667 35.6889 58.6667 32 58.6667ZM32 53.3333C37.9556 53.3333 43 51.2667 47.1333 47.1333C51.2667 43 53.3333 37.9556 53.3333 32C53.3333 26.0445 51.2667 21 47.1333 16.8667C43 12.7333 37.9556 10.6667 32 10.6667C26.0444 10.6667 21 12.7333 16.8667 16.8667C12.7333 21 10.6667 26.0445 10.6667 32C10.6667 37.9556 12.7333 43 16.8667 47.1333C21 51.2667 26.0444 53.3333 32 53.3333Z" fill="#20C997"/>
</svg>
