<svg width="64" height="64" viewBox="0 0 64 64" fill="none" xmlns="http://www.w3.org/2000/svg">
<path d="M29.3334 55.8667C23.9556 55.2 19.5 52.8556 15.9667 48.8333C12.4334 44.8111 10.6667 40.0889 10.6667 34.6667C10.6667 31.7333 11.2445 28.9222 12.4 26.2333C13.5556 23.5445 15.2 21.2 17.3334 19.2L21.1334 23C19.4445 24.5111 18.1667 26.2667 17.3 28.2667C16.4334 30.2667 16 32.4 16 34.6667C16 38.5778 17.2445 42.0333 19.7334 45.0333C22.2222 48.0333 25.4222 49.8667 29.3334 50.5333V55.8667ZM34.6667 55.8667V50.5333C38.5334 49.8222 41.7222 47.9778 44.2334 45C46.7445 42.0222 48 38.5778 48 34.6667C48 30.2222 46.4445 26.4445 43.3334 23.3333C40.2222 20.2222 36.4445 18.6667 32 18.6667H31.8L34.7334 21.6L31 25.3333L21.6667 16L31 6.66667L34.7334 10.4L31.8 13.3333H32C37.9556 13.3333 43 15.4 47.1334 19.5333C51.2667 23.6667 53.3334 28.7111 53.3334 34.6667C53.3334 40.0445 51.5667 44.7445 48.0334 48.7667C44.5 52.7889 40.0445 55.1556 34.6667 55.8667Z" fill="#FCC419"/>
</svg>
