<svg width="64" height="64" viewBox="0 0 64 64" fill="none" xmlns="http://www.w3.org/2000/svg">
<path d="M29.0806 58.6667C26.559 58.6667 24.432 56.789 24.1192 54.2868L23.8259 51.9405C23.6868 50.8279 22.9244 49.9163 21.9667 49.3333C21.0105 48.7513 19.8362 48.5983 18.8042 49.0319L16.5917 49.9615C14.2716 50.9363 11.5886 50.0349 10.3277 47.857L7.41377 42.8238C6.14939 40.6399 6.71058 37.8561 8.72236 36.3326L11.3466 34.3453C11.791 34.0088 12 33.4574 12 32.9V31.1C12 30.5426 11.791 29.9912 11.3466 29.6547L8.72236 27.6674C6.71058 26.1439 6.14939 23.3602 7.41377 21.1762L10.3277 16.143C11.5886 13.9651 14.2716 13.0637 16.5917 14.0385L18.7783 14.9573C19.8263 15.3976 21.018 15.2395 22 14.6667C22.9562 14.1089 23.6847 13.1888 23.822 12.0903L24.1192 9.71317C24.432 7.21102 26.559 5.33334 29.0806 5.33334H34.9194C37.441 5.33334 39.568 7.21103 39.8808 9.71317L40.1741 12.0596C40.3132 13.1722 41.0756 14.0837 42.0333 14.6667C42.9895 15.2487 44.1638 15.4018 45.1958 14.9682L47.4083 14.0385C49.7284 13.0637 52.4114 13.9651 53.6723 16.143L56.5862 21.1762C57.8506 23.3601 57.2894 26.1439 55.2776 27.6674L52.6534 29.6547C52.209 29.9912 52 30.5426 52 31.1V32.9C52 33.4502 52.1557 34.0189 52.5943 34.3511L55.211 36.3326C57.2227 37.8561 57.7839 40.6399 56.5196 42.8238L53.6123 47.8454C52.3486 50.0283 49.6568 50.928 47.3344 49.944L45.2196 49.0479C44.1733 48.6045 42.9815 48.7608 42 49.3333C41.0438 49.8911 40.3153 50.8112 40.178 51.9097L39.8808 54.2868C39.568 56.789 37.441 58.6667 34.9194 58.6667H29.0806ZM29.0113 50.7074C29.1952 52.2067 30.4684 53.3333 31.979 53.3333C33.479 53.3333 34.7468 52.222 34.9432 50.7349L35.1274 49.3398C35.3727 47.4826 36.7558 46.0238 38.4377 45.1987C38.754 45.0435 39.0636 44.8773 39.3667 44.7C39.659 44.529 39.9452 44.3491 40.2253 44.1603C41.7732 43.1167 43.7246 42.6657 45.4494 43.3801L46.7878 43.9343C48.1672 44.5056 49.7562 43.9636 50.4989 42.6685C51.2426 41.3718 50.9062 39.7245 49.7137 38.8232L47.6823 37.2878C46.7209 36.5611 46.3791 35.2952 46.5333 34.1C46.6222 33.4111 46.6667 32.7111 46.6667 32C46.6667 31.2889 46.6222 30.5889 46.5333 29.9C46.3791 28.7048 46.7209 27.4389 47.6823 26.7122L49.7228 25.17C50.9101 24.2726 51.245 22.6324 50.5046 21.3413C49.7602 20.0434 48.1634 19.5064 46.7861 20.0908L45.4891 20.641C43.7502 21.3787 41.7744 20.9013 40.2144 19.8364C39.9378 19.6476 39.6552 19.4688 39.3667 19.3C39.0629 19.1223 38.7525 18.9557 38.4354 18.8002C36.7577 17.9774 35.3838 16.5138 35.1563 14.6591L34.9887 13.2927C34.8048 11.7933 33.5316 10.6667 32.021 10.6667C30.521 10.6667 29.2532 11.7781 29.0568 13.2651L28.8726 14.6602C28.6273 16.5174 27.2442 17.9762 25.5623 18.8014C25.246 18.9565 24.9364 19.1228 24.6333 19.3C24.341 19.471 24.0548 19.6509 23.7747 19.8397C22.2268 20.8833 20.2754 21.3343 18.5506 20.62L17.2032 20.0619C15.829 19.4928 14.2459 20.0328 13.5059 21.323C12.7609 22.6221 13.1044 24.273 14.3058 25.1671L16.2833 26.6387C17.2679 27.3715 17.6289 28.6501 17.4667 29.8667C17.3778 30.5333 17.3333 31.2445 17.3333 32C17.3333 32.7111 17.3778 33.4 17.4667 34.0667C17.6291 35.2851 17.2731 36.5657 16.2925 37.3068L14.2772 38.83C13.0899 39.7274 12.755 41.3676 13.4954 42.6587C14.2398 43.9566 15.8366 44.4936 17.2139 43.9092L18.5109 43.359C20.2498 42.6213 22.2256 43.0987 23.7856 44.1636C24.0622 44.3524 24.3448 44.5312 24.6333 44.7C24.9371 44.8777 25.2475 45.0443 25.5646 45.1998C27.2423 46.0226 28.6162 47.4862 28.8437 49.3409L29.0113 50.7074ZM32.1333 41.3333C34.7111 41.3333 36.9111 40.4222 38.7333 38.6C40.5556 36.7778 41.4667 34.5778 41.4667 32C41.4667 29.4222 40.5556 27.2222 38.7333 25.4C36.9111 23.5778 34.7111 22.6667 32.1333 22.6667C29.5111 22.6667 27.3 23.5778 25.5 25.4C23.7 27.2222 22.8 29.4222 22.8 32C22.8 34.5778 23.7 36.7778 25.5 38.6C27.3 40.4222 29.5111 41.3333 32.1333 41.3333Z" fill="#FCC419"/>
</svg>
